<svg xmlns="http://www.w3.org/2000/svg" xmlns:xlink="http://www.w3.org/1999/xlink" width="24" height="24" preserveAspectRatio="xMidYMid meet" viewBox="0 0 24 24" style="-ms-transform: rotate(360deg); -webkit-transform: rotate(360deg); transform: rotate(360deg);"><path d="M6 15a2 2 0 0 1-2 2a2 2 0 0 1-2-2a2 2 0 0 1 2-2h2v2m1 0a2 2 0 0 1 2-2a2 2 0 0 1 2 2v5a2 2 0 0 1-2 2a2 2 0 0 1-2-2v-5m2-8a2 2 0 0 1-2-2a2 2 0 0 1 2-2a2 2 0 0 1 2 2v2H9m0 1a2 2 0 0 1 2 2a2 2 0 0 1-2 2H4a2 2 0 0 1-2-2a2 2 0 0 1 2-2h5m8 2a2 2 0 0 1 2-2a2 2 0 0 1 2 2a2 2 0 0 1-2 2h-2v-2m-1 0a2 2 0 0 1-2 2a2 2 0 0 1-2-2V5a2 2 0 0 1 2-2a2 2 0 0 1 2 2v5m-2 8a2 2 0 0 1 2 2a2 2 0 0 1-2 2a2 2 0 0 1-2-2v-2h2m0-1a2 2 0 0 1-2-2a2 2 0 0 1 2-2h5a2 2 0 0 1 2 2a2 2 0 0 1-2 2h-5z" fill="white"/><rect x="0" y="0" width="24" height="24" fill="rgba(0, 0, 0, 0)" /></svg>